<svg version="1.0" xmlns="http://www.w3.org/2000/svg"
 width="990.000000pt" height="327.000000pt" viewBox="0 0 990.000000 327.000000"
 preserveAspectRatio="xMidYMid meet">

<g transform="translate(0.000000,327.000000) scale(0.100000,-0.100000)"
fill="#17252A" stroke="none">
<path d="M4002 2978 l3 -162 90 -18 c50 -10 114 -23 143 -29 l52 -10 0 -352 0
-352 -45 51 c-56 64 -162 137 -240 165 -82 30 -252 37 -355 15 -254 -54 -449
-252 -544 -554 -77 -245 -86 -622 -21 -878 77 -304 273 -518 530 -580 88 -21
270 -24 345 -5 104 26 189 77 277 166 93 94 81 98 103 -35 6 -36 13 -75 15
-87 l5 -23 360 0 360 0 0 160 c0 157 0 160 -22 165 -13 3 -70 16 -128 28
l-105 22 -3 1238 -2 1237 -410 0 -410 0 2 -162z m92 -1118 c59 -23 125 -75
167 -133 l29 -40 0 -417 0 -417 -31 -39 c-74 -94 -182 -144 -315 -144 -84 0
-166 26 -216 68 -113 95 -172 342 -148 626 15 189 63 338 135 424 79 94 238
124 379 72z"/>
<path d="M170 2787 l0 -164 128 -23 c70 -12 133 -25 140 -27 9 -4 12 -161 12
-737 0 -800 3 -848 58 -1003 101 -286 357 -485 712 -553 267 -52 587 -27 809
63 104 42 211 109 288 181 120 112 191 232 235 399 22 80 22 97 25 864 4 728
5 782 21 787 9 2 72 14 140 27 l122 23 0 163 0 163 -550 0 -550 0 2 -162 3
-162 90 -18 c50 -10 114 -23 143 -29 l52 -10 0 -712 c0 -404 -5 -741 -10 -779
-29 -198 -132 -325 -313 -384 -70 -23 -100 -27 -207 -28 -105 -1 -137 3 -200
23 -169 53 -263 146 -314 310 -19 63 -20 96 -24 818 l-3 751 51 11 c29 6 94
19 146 28 l94 18 0 162 0 163 -550 0 -550 0 0 -163z"/>
<path d="M7790 1798 c-222 -634 -404 -1154 -405 -1156 -2 -2 -34 -7 -71 -13
-128 -18 -114 4 -114 -179 l0 -160 450 0 450 0 0 159 c0 144 -2 160 -17 165
-10 2 -51 10 -91 17 -59 10 -73 16 -69 28 2 9 29 91 58 184 l54 167 429 -2
430 -3 58 -180 c31 -99 58 -181 58 -181 0 -1 -35 -7 -77 -14 -42 -6 -83 -14
-90 -17 -10 -4 -13 -42 -13 -164 l0 -159 450 0 450 0 0 160 c0 183 14 161
-114 179 -37 6 -70 12 -72 14 -2 2 -179 509 -394 1128 -215 618 -395 1136
-401 1152 l-11 27 -273 0 -272 0 -403 -1152z m831 60 c78 -246 140 -450 137
-453 -3 -3 -138 -4 -300 -3 l-296 3 143 449 c170 531 154 485 165 466 4 -8 72
-216 151 -462z"/>
<path d="M5929 2281 c-247 -54 -442 -215 -564 -466 -99 -204 -135 -455 -104
-732 39 -348 246 -641 537 -759 151 -61 326 -83 520 -65 242 22 423 84 611
210 12 7 1 39 -58 174 l-73 165 -91 -43 c-120 -56 -208 -82 -320 -96 -156 -19
-288 1 -378 57 -52 32 -124 117 -154 181 -28 58 -59 188 -50 204 4 5 235 9
591 9 l584 0 0 214 c0 314 -34 467 -140 629 -98 148 -237 250 -415 302 -124
37 -365 45 -496 16z m364 -425 c102 -49 156 -147 165 -298 l5 -88 -326 0
c-179 0 -328 3 -330 8 -9 16 26 151 57 217 40 85 100 147 169 175 75 29 184
23 260 -14z"/>
</g>
</svg>
